<svg xmlns="http://www.w3.org/2000/svg" data-name="Calque 1" viewBox="0 0 200 250" x="0px" y="0px"><polygon points="91 126 91 135 100 135 109 135 109 126 100 126 91 126"/><rect x="65" y="91" width="9" height="9"/><rect x="65" y="47" width="9" height="9"/><rect x="126" y="91" width="9" height="9"/><rect x="126" y="47" width="9" height="9"/><path d="M161.19,29H29V170H170V29Zm-34.53,9H144v71H118V38Zm-62,0H82v71H56V38ZM162,144.67V162H39V136h8v17H153V136h9ZM74,144H56v-9H74Zm52-9h18v9H126Zm36-88.22V126H118v18H82V126H38V38h9v79H91V38h18v79h44V38h9Z"/><text x="0" y="215" fill="#000000" font-size="5px" font-weight="bold" font-family="'Helvetica Neue', Helvetica, Arial-Unicode, Arial, Sans-serif">Created by Alessio Capponi</text><text x="0" y="220" fill="#000000" font-size="5px" font-weight="bold" font-family="'Helvetica Neue', Helvetica, Arial-Unicode, Arial, Sans-serif">from the Noun Project</text></svg>